<?xml version="1.0" encoding="UTF-8"?>
<svg id="Livello_1" xmlns="http://www.w3.org/2000/svg" baseProfile="tiny" version="1.2" viewBox="0 0 1080 1080">
  <!-- Generator: Adobe Illustrator 29.8.1, SVG Export Plug-In . SVG Version: 2.1.1 Build 2)  -->
  <path d="M165.758,484.345c-1.556.342-3.632.777-6.227,1.297s-5.539.777-8.822.777c-6.056,0-10.554-1.128-13.493-3.374-2.944-2.242-4.411-6.225-4.411-11.935v-82.25c0-4.498,1.039-8.303,3.115-11.419,2.076-3.112,5.099-5.879,9.082-8.303,5.359-3.281,11.975-5.967,19.849-8.041,7.87-2.078,16.388-3.117,25.558-3.117,16.432,0,24.648,5.106,24.648,15.309,0,2.424-.389,4.717-1.168,6.875-.777,2.166-1.601,3.94-2.464,5.321-3.98-.866-8.911-1.297-14.789-1.297-6.058,0-11.766.693-17.125,2.074-5.363,1.389-9.95,3.117-13.753,5.19v92.892Z" fill="#b22222"/>
  <path d="M340.742,423.11c0,10.034-1.516,19.072-4.54,27.113-3.028,8.045-7.31,14.92-12.845,20.63-5.537,5.705-12.194,10.076-19.978,13.1-7.785,3.028-16.521,4.544-26.207,4.544s-18.423-1.516-26.207-4.544c-7.783-3.024-14.445-7.348-19.98-12.973-5.539-5.617-9.819-12.454-12.843-20.495-3.03-8.045-4.542-17.167-4.542-27.374,0-10.03,1.512-19.072,4.542-27.117,3.024-8.041,7.35-14.874,12.973-20.499,5.619-5.617,12.323-9.941,20.108-12.973,7.783-3.024,16.432-4.54,25.947-4.54s18.162,1.516,25.947,4.54c7.783,3.032,14.485,7.399,20.108,13.104,5.619,5.71,9.945,12.585,12.973,20.63,3.024,8.041,4.54,16.994,4.54,26.855ZM277.173,383.927c-9.342,0-16.696,3.421-22.055,10.25-5.363,6.837-8.043,16.479-8.043,28.933,0,12.627,2.635,22.315,7.914,29.059,5.273,6.744,12.669,10.119,22.184,10.119s16.905-3.412,22.184-10.25c5.275-6.829,7.914-16.474,7.914-28.929s-2.684-22.095-8.043-28.933c-5.366-6.829-12.716-10.25-22.055-10.25Z" fill="#b22222"/>
  <path d="M465.338,470.464c-1.387,2.682-3.894,5.059-7.526,7.133-5.019,3.112-11.375,5.71-19.072,7.783-7.699,2.078-16.474,3.117-26.336,3.117-8.995,0-17.125-1.001-24.391-2.986-7.264-1.985-13.491-5.059-18.681-9.211-5.19-4.151-9.171-9.426-11.935-15.828-2.77-6.398-4.153-14.012-4.153-22.835v-75.506c1.383-.519,3.414-.992,6.098-1.427,2.68-.427,5.663-.646,8.951-.646,6.054,0,10.549,1.081,13.493,3.243,2.939,2.162,4.411,6.187,4.411,12.066v61.751c0,9,2.291,15.44,6.877,19.334,4.58,3.89,11.111,5.836,19.589,5.836,5.359,0,9.901-.519,13.622-1.554,3.718-1.039,6.527-2.162,8.434-3.374v-95.228c1.381-.519,3.412-.992,6.096-1.427,2.682-.427,5.579-.646,8.693-.646,6.227,0,10.767,1.081,13.622,3.243,2.855,2.162,4.282,6.187,4.282,12.066v85.105c0,3.982-.695,7.31-2.076,9.992Z" fill="#b22222"/>
  <path d="M565.958,473.965c-3.463,1.731-7.483,3.201-12.066,4.409-4.586,1.212-9.905,1.82-15.957,1.82-7.785,0-15.138-1.081-22.055-3.243-6.92-2.162-12.973-5.667-18.164-10.511-5.188-4.84-9.299-11.111-12.323-18.81-3.03-7.695-4.542-17.083-4.542-28.151,0-10.03,1.512-18.899,4.542-26.597,3.024-7.695,7.35-14.143,12.973-19.329,5.619-5.19,12.323-9.084,20.108-11.677,7.783-2.597,16.432-3.894,25.947-3.894,8.991,0,17.254,1.128,24.779,3.374,7.524,2.251,13.533,4.844,18.033,7.783,3.115,2.078,5.579,4.413,7.395,7.006s2.724,5.883,2.724,9.861v100.156c0,8.822-1.601,16.432-4.8,22.83-3.203,6.398-7.57,11.635-13.102,15.697-5.539,4.063-12.025,7.048-19.46,8.953-7.441,1.9-15.484,2.855-24.131,2.855-8.997,0-16.825-.824-23.483-2.466-6.66-1.643-11.635-3.501-14.918-5.579-5.71-3.632-8.565-8.476-8.565-14.528,0-3.29.69-6.145,2.078-8.565,1.381-2.424,3.024-4.24,4.928-5.448,4.498,2.766,9.945,5.19,16.348,7.264,6.396,2.078,13.233,3.117,20.497,3.117,10.378,0,18.508-1.993,24.391-5.972,5.879-3.978,8.822-10.376,8.822-19.198v-11.158ZM543.383,454.762c5.015,0,9.297-.688,12.845-2.074,3.543-1.381,6.616-3.024,9.211-4.928v-58.643c-2.424-1.381-5.235-2.593-8.434-3.632-3.201-1.039-7.048-1.558-11.546-1.558-9.515,0-17.169,2.901-22.963,8.695-5.796,5.794-8.691,14.747-8.691,26.855,0,6.575.733,12.108,2.204,16.605,1.468,4.498,3.545,8.13,6.229,10.896,2.68,2.77,5.836,4.759,9.47,5.967,3.632,1.212,7.524,1.816,11.675,1.816Z" fill="#b22222"/>
  <path d="M643.383,437.899c2.42,8.822,6.918,15.224,13.493,19.198,6.571,3.982,14.701,5.967,24.391,5.967,7.264,0,13.966-1.077,20.108-3.243,6.138-2.158,11.111-4.451,14.918-6.875,2.422,1.389,4.411,3.29,5.969,5.71,1.556,2.424,2.335,5.017,2.335,7.783,0,3.463-1.168,6.533-3.503,9.211-2.335,2.686-5.539,4.975-9.601,6.875-4.067,1.909-8.866,3.374-14.401,4.413-5.537,1.039-11.506,1.558-17.902,1.558-10.209,0-19.507-1.389-27.894-4.151-8.391-2.766-15.569-6.964-21.536-12.585-5.967-5.621-10.638-12.585-14.012-20.888-3.372-8.303-5.059-17.991-5.059-29.059,0-10.727,1.643-20.068,4.931-28.025,3.283-7.956,7.739-14.616,13.362-19.98,5.619-5.359,12.15-9.342,19.591-11.935,7.435-2.597,15.309-3.894,23.612-3.894,8.474,0,16.257,1.343,23.352,4.025,7.091,2.682,13.145,6.398,18.164,11.158,5.015,4.759,8.951,10.465,11.806,17.125,2.853,6.66,4.28,13.881,4.28,21.665,0,4.844-1.256,8.476-3.763,10.896-2.509,2.424-6.012,3.982-10.507,4.671l-72.133,10.38ZM672.185,382.631c-8.478,0-15.569,2.813-21.276,8.434-5.71,5.621-8.913,13.62-9.601,24l57.602-8.56c-.693-6.398-3.201-11.977-7.524-16.736-4.327-4.755-10.727-7.137-19.201-7.137Z" fill="#b22222"/>
  <path d="M196.376,617.712c-5.19,0-9.99.866-14.401,2.593-4.411,1.731-8.218,4.24-11.417,7.526-3.201,3.286-5.752,7.352-7.652,12.196-1.907,4.844-2.855,10.465-2.855,16.863,0,12.805,3.372,22.446,10.119,28.933s15.48,9.73,26.207,9.73c6.054,0,11.286-.819,15.697-2.466,4.411-1.643,8.345-3.412,11.806-5.317,2.422,1.727,4.367,3.721,5.838,5.967,1.468,2.247,2.207,4.844,2.207,7.783,0,5.883-3.463,10.727-10.38,14.528-6.92,3.805-16.261,5.71-28.023,5.71-9.859,0-18.901-1.343-27.115-4.02-8.216-2.682-15.267-6.749-21.145-12.196-5.883-5.448-10.425-12.234-13.624-20.368-3.201-8.13-4.8-17.556-4.8-28.282,0-10.896,1.727-20.453,5.19-28.671,3.459-8.214,8.174-15.047,14.141-20.499,5.967-5.448,12.929-9.511,20.888-12.192,7.954-2.682,16.43-4.025,25.428-4.025,11.586,0,20.843,2.036,27.763,6.098,6.918,4.067,10.378,9.042,10.378,14.92,0,2.77-.737,5.279-2.204,7.526-1.472,2.247-3.159,4.067-5.059,5.448-3.463-1.9-7.31-3.674-11.548-5.321-4.24-1.639-9.384-2.462-15.438-2.462Z" fill="#251313"/>
  <path d="M362.253,656.633c0,10.034-1.516,19.072-4.54,27.113-3.028,8.045-7.31,14.92-12.845,20.63-5.537,5.705-12.194,10.076-19.978,13.1-7.785,3.028-16.521,4.544-26.207,4.544s-18.423-1.516-26.207-4.544c-7.783-3.024-14.445-7.348-19.98-12.973-5.539-5.617-9.819-12.454-12.843-20.495-3.03-8.045-4.542-17.167-4.542-27.374,0-10.03,1.512-19.072,4.542-27.117,3.024-8.041,7.35-14.874,12.973-20.499,5.619-5.617,12.323-9.941,20.108-12.973,7.783-3.024,16.432-4.54,25.947-4.54s18.162,1.516,25.947,4.54c7.783,3.032,14.485,7.399,20.108,13.104,5.619,5.71,9.945,12.585,12.973,20.63,3.024,8.041,4.54,16.994,4.54,26.855ZM298.684,617.45c-9.342,0-16.696,3.421-22.055,10.25-5.363,6.837-8.043,16.479-8.043,28.933,0,12.627,2.635,22.315,7.914,29.059,5.273,6.744,12.669,10.119,22.184,10.119s16.905-3.412,22.184-10.25c5.275-6.829,7.914-16.474,7.914-28.929s-2.684-22.095-8.043-28.933c-5.366-6.829-12.716-10.25-22.055-10.25Z" fill="#251313"/>
  <path d="M450.366,622.641c-4.24-3.459-9.99-5.19-17.254-5.19-5.019,0-9.646.608-13.881,1.816-4.242,1.212-7.914,2.77-11.029,4.671v93.931c-1.556.342-3.632.777-6.227,1.297-2.595.519-5.539.777-8.822.777-6.056,0-10.554-1.128-13.493-3.374-2.944-2.242-4.411-6.225-4.411-11.935v-83.289c0-4.151.864-7.526,2.595-10.119,1.727-2.597,4.411-5.102,8.045-7.526,5.015-3.459,11.675-6.356,19.978-8.691,8.303-2.335,17.471-3.505,27.505-3.505,17.813,0,31.61,3.936,41.385,11.808,9.77,7.872,14.661,19.418,14.661,34.638v79.919c-1.387.342-3.419.777-6.098,1.297-2.684.519-5.579.777-8.693.777-6.227,0-10.767-1.128-13.622-3.374-2.853-2.242-4.28-6.225-4.28-11.935v-65.645c0-7.437-2.12-12.885-6.358-16.348Z" fill="#251313"/>
  <path d="M583.757,622.641c-4.24-3.459-9.99-5.19-17.254-5.19-5.019,0-9.646.608-13.881,1.816-4.242,1.212-7.914,2.77-11.029,4.671v93.931c-1.556.342-3.632.777-6.227,1.297-2.595.519-5.539.777-8.822.777-6.056,0-10.554-1.128-13.493-3.374-2.944-2.242-4.411-6.225-4.411-11.935v-83.289c0-4.151.864-7.526,2.595-10.119,1.727-2.597,4.411-5.102,8.045-7.526,5.015-3.459,11.675-6.356,19.978-8.691,8.303-2.335,17.471-3.505,27.505-3.505,17.813,0,31.61,3.936,41.385,11.808,9.77,7.872,14.661,19.418,14.661,34.638v79.919c-1.387.342-3.419.777-6.098,1.297-2.684.519-5.579.777-8.693.777-6.227,0-10.767-1.128-13.622-3.374-2.853-2.242-4.28-6.225-4.28-11.935v-65.645c0-7.437-2.12-12.885-6.358-16.348Z" fill="#251313"/>
  <path d="M668.627,671.422c2.42,8.822,6.918,15.224,13.493,19.198,6.571,3.982,14.701,5.967,24.391,5.967,7.264,0,13.966-1.077,20.108-3.243,6.138-2.158,11.111-4.451,14.918-6.875,2.422,1.389,4.411,3.29,5.969,5.71,1.556,2.424,2.335,5.017,2.335,7.783,0,3.463-1.168,6.533-3.503,9.211-2.335,2.686-5.539,4.975-9.601,6.875-4.067,1.909-8.866,3.374-14.401,4.413-5.537,1.039-11.506,1.558-17.902,1.558-10.209,0-19.507-1.389-27.894-4.151-8.391-2.766-15.569-6.964-21.536-12.585-5.967-5.621-10.638-12.585-14.012-20.888-3.372-8.303-5.059-17.991-5.059-29.059,0-10.727,1.643-20.068,4.931-28.025,3.283-7.956,7.739-14.616,13.362-19.98,5.619-5.359,12.15-9.342,19.591-11.935,7.435-2.597,15.309-3.894,23.612-3.894,8.474,0,16.257,1.343,23.352,4.025,7.091,2.682,13.145,6.398,18.164,11.158,5.015,4.759,8.951,10.465,11.806,17.125,2.853,6.66,4.28,13.881,4.28,21.665,0,4.844-1.256,8.476-3.763,10.896-2.509,2.424-6.012,3.982-10.507,4.671l-72.133,10.38ZM697.429,616.154c-8.478,0-15.569,2.813-21.276,8.434-5.71,5.621-8.913,13.62-9.601,24l57.602-8.56c-.693-6.398-3.201-11.977-7.524-16.736-4.327-4.755-10.727-7.137-19.201-7.137Z" fill="#251313"/>
  <path d="M830.715,617.712c-5.19,0-9.99.866-14.401,2.593-4.411,1.731-8.218,4.24-11.417,7.526-3.201,3.286-5.752,7.352-7.652,12.196-1.907,4.844-2.855,10.465-2.855,16.863,0,12.805,3.372,22.446,10.119,28.933,6.746,6.487,15.48,9.73,26.207,9.73,6.054,0,11.286-.819,15.697-2.466,4.411-1.643,8.345-3.412,11.806-5.317,2.422,1.727,4.367,3.721,5.838,5.967,1.468,2.247,2.207,4.844,2.207,7.783,0,5.883-3.463,10.727-10.38,14.528-6.92,3.805-16.261,5.71-28.023,5.71-9.859,0-18.901-1.343-27.115-4.02-8.216-2.682-15.267-6.749-21.145-12.196-5.883-5.448-10.425-12.234-13.624-20.368-3.201-8.13-4.8-17.556-4.8-28.282,0-10.896,1.727-20.453,5.19-28.671,3.459-8.214,8.174-15.047,14.141-20.499,5.967-5.448,12.929-9.511,20.888-12.192,7.954-2.682,16.43-4.025,25.428-4.025,11.586,0,20.843,2.036,27.763,6.098,6.918,4.067,10.378,9.042,10.378,14.92,0,2.77-.737,5.279-2.204,7.526-1.472,2.247-3.159,4.067-5.059,5.448-3.463-1.9-7.31-3.674-11.548-5.321-4.24-1.639-9.384-2.462-15.438-2.462Z" fill="#251313"/>
  <path d="M915.326,691.921c3.374,2.424,8.085,3.632,14.141,3.632,2.939,0,5.923-.346,8.953-1.039,3.024-.688,5.748-1.558,8.172-2.593,1.383,1.385,2.551,3.07,3.503,5.059.95,1.989,1.427,4.278,1.427,6.875,0,5.19-2.335,9.468-7.006,12.843-4.669,3.374-12.194,5.059-22.573,5.059-13.668,0-24.435-3.074-32.305-9.211-7.872-6.136-11.806-16.301-11.806-30.487v-119.097c1.383-.346,3.414-.777,6.098-1.297,2.68-.519,5.579-.781,8.691-.781,6.054,0,10.509,1.128,13.364,3.374,2.853,2.251,4.28,6.229,4.28,11.935v21.538h38.143c.864,1.385,1.641,3.201,2.333,5.448.69,2.251,1.039,4.671,1.039,7.264,0,4.502-1.039,7.787-3.115,9.861-2.076,2.078-4.844,3.112-8.303,3.112h-30.098v56.565c0,5.541,1.687,9.515,5.059,11.939Z" fill="#251313"/>
</svg>